<?xml version="1.0" encoding="utf-8"?>
<!-- Generator: Adobe Illustrator 16.0.3, SVG Export Plug-In . SVG Version: 6.00 Build 0)  -->
<!DOCTYPE svg PUBLIC "-//W3C//DTD SVG 1.1//EN" "http://www.w3.org/Graphics/SVG/1.1/DTD/svg11.dtd">
<svg version="1.1" id="Capa_1" xmlns="http://www.w3.org/2000/svg" xmlns:xlink="http://www.w3.org/1999/xlink" x="0px" y="0px"
	 width="717.084px" height="320.943px" viewBox="1.957 165.31 717.084 320.943"
	 enable-background="new 1.957 165.31 717.084 320.943" xml:space="preserve">
<g id="Capa_2">
</g>
<g>
	<g>
		<g>
			<g>
				<g>
					<defs>
						<rect id="SVGID_1_" x="1.957" y="165.31" width="717.084" height="93.051"/>
					</defs>
					<clipPath id="SVGID_2_">
						<use xlink:href="#SVGID_1_"  overflow="visible"/>
					</clipPath>
					<g clip-path="url(#SVGID_2_)">
						<path fill="#FFFFFF" d="M67.661,165.409c-0.191,0.071-0.523,0.272-0.642,0.804c-0.512,0.816,0.001,2.022,0.737,2.945
							c6.798,6.966,7.538,22.167,7.538,28.377c0,4.638-0.331,9.086-0.924,12.504c-2.875,16.208-11.084,33.254-20.652,33.256
							c-0.095,0-0.179,0-0.273,0c-7.962-0.673-12.207-10.184-13.134-16.486c2.707-10.044,3.752-19.663,3.573-24.763
							c-0.191-4.6-1.962-8.526-4.231-9.344c-1.118-0.39-2.271-0.021-3.245,1.065c-1.391,1.668-2.186,6.306-2.185,12.729
							c0.001,5.69,0.691,12.113,1.951,18.11c-3.147,9.536-10.717,19.249-17.04,18.608c-7.656-0.813-11.911-10.881-12.743-20.499
							c-0.167-2.141-0.25-4.232-0.251-6.422c-0.002-13.449,3.609-27.186,6.925-31.524c0.475-0.476,0.285-1.895-0.095-2.449
							c-0.309-0.438-0.785-0.592-1.272-0.366c-5.741,2.9-9.743,19.401-9.741,32.378c0,2.946,0.18,6.069,0.525,9.017
							c2.26,17.435,10.925,23.976,18.28,24.281c0.084,0,0.167,0,0.25,0c8.248-0.001,14.071-9.312,17.124-15.807
							c4.399,13.048,12.493,15.46,15.868,15.885c0.38,0.048,0.773,0.072,1.165,0.072c8.652-0.001,19.132-11.11,22.849-36.425
							c0.571-3.503,0.868-7.727,0.868-12.528c-0.002-6.945-0.931-24.037-9.537-32.813C68.696,165.432,68.137,165.232,67.661,165.409
							z M40.034,202.769c0.19,3.384-0.44,8.92-1.651,14.69c-0.38-3.239-0.583-6.351-0.583-9.286
							c-0.001-5.216,0.712-8.657,1.437-10.812c0.583,1.479,0.951,4.39,0.809,5.264v0.071v0.07L40.034,202.769L40.034,202.769z"/>
						<path fill="#FFFFFF" d="M166.427,209.471c-4.361-0.71-9.827,3.042-12.631,5.893l0.047-1.728c0-0.806-0.702-1.812-1.617-2.318
							c-0.82-0.413-1.605-0.473-2.091-0.177c-0.297,0.177-0.462,0.484-0.476,0.84c-0.141,1.325-0.272,2.508-0.379,3.596
							c-3.231,3.372-9.09,9.313-16.994,9.313c-2.353,0-4.659-1.857-5.419-3.205c3.196-0.333,6.441-2.485,7.51-5.111
							c0.451-1.196,0.274-2.473-0.511-3.596c-0.94-1.359-2.604-2.227-4.255-2.227c-4.172,0.167-6.82,3.669-7.26,7.277
							c-3.792,2.249-9.187,4.059-12.313,4.059c-0.818,0-1.568-0.141-2.222-0.414c-0.261-1.265-0.179-2.519-0.107-3.735
							c0.059-0.983,0.118-1.917-0.012-2.922c-0.428-1.396-1.949-2.51-3.209-2.863c-4.98-1.573-11.801,4.71-14.391,7.337
							l-0.001-6.081c0.166-11.628,0.33-22.617,1.444-33.654c0-1.291-1.889-2.224-3.16-2.224c-1.01,0-1.367,0.604-1.367,1.089
							c-0.51,9.25-1.032,20.417-1.029,33.168l0.001,12.104c0,2.151,0,2.709,0.119,2.992c0.32,1.171,1.878,2.162,2.924,2.162
							c0.082,0,0.154,0,0.225-0.011c0.606-0.095,0.963-0.557,0.916-1.089c0.38-4.306,8.936-11.582,12.977-12.126
							c0,0.083-0.013,0.178-0.024,0.271c-0.048,0.531-0.106,1.194-0.106,1.916c0,2.65,0.892,4.639,2.663,5.949
							c1.889,1.23,3.815,1.798,6.061,1.797c3.934,0,8.223-1.563,11.183-3.489c1.962,4.956,7.904,5.914,12.159,5.911
							c0.535,0,1.046-0.012,1.509-0.034c4.552-0.263,9.151-2.828,12.181-6.543c-0.166,3.052,0.013,3.893,0.214,4.316
							c0.333,1.218,2.116,2.164,3.162,2.164c0.084,0,0.167,0,0.239-0.021c0.534-0.097,0.866-0.476,0.854-0.994
							c0.096-0.663,0.155-1.194,0.214-1.608c0.143-1.078,0.189-1.442,0.345-1.882c1.889-5.394,8.127-10.138,12.192-10.564
							c-0.059,0.51,0.226,0.981,0.725,1.206c0.629,0.285,1.64,0.18,2.613-0.922c0.321-0.367,0.393-0.888,0.19-1.442
							c-0.333-0.925-1.438-2.06-3.114-2.344L166.427,209.471z M127.055,217.284c0.57-1.146,1.532-2.342,2.471-2.744
							c0.202-0.083,0.37-0.12,0.5-0.12c0.249,0,0.415,0.12,0.534,0.237c0.024,0.024,0.048,0.047,0.024,0.142
							c-0.131,0.71-1.593,2.061-3.839,3.23c0.107-0.249,0.202-0.497,0.298-0.746L127.055,217.284L127.055,217.284z"/>
						<path fill="#FFFFFF" d="M199.801,214.448c-0.713-0.497-1.628,0.438-2.067,0.899c-3.196,3.322-9.138,9.521-17.195,9.522
							c-2.354,0.001-4.659-1.854-5.421-3.205c3.197-0.331,6.441-2.483,7.51-5.109c0.452-1.195,0.273-2.475-0.51-3.599
							c-0.939-1.358-2.604-2.223-4.256-2.223c-4.587,0.188-7.332,4.389-7.332,8.34c0,0.841,0.155,1.764,0.452,2.65
							c1.747,5.395,7.952,6.408,12.349,6.407c0.535,0,1.046-0.011,1.509-0.033c5.776-0.332,11.646-4.355,14.273-9.785
							c1.614-3.206,0.926-3.691,0.676-3.868h0.012V214.448z M178.86,214.781c-0.13,0.709-1.604,2.07-3.873,3.253
							c0.451-1.325,1.663-3.017,2.804-3.513c0.202-0.083,0.369-0.119,0.5-0.119c0.249,0,0.416,0.118,0.534,0.237
							c0.024,0.021,0.048,0.047,0.024,0.142H178.86z"/>
						<path fill="#FFFFFF" d="M318.218,206.979c-3.827,0.52-10.364,2.415-12.667,5.49c-0.714,0.959-0.999,1.977-0.845,3.005
							c0.073,0.497,0.214,0.923,0.404,1.323c-4.182,3.765-8.057,5.69-11.729,5.856c-1.843-0.2-2.436-1.619-2.805-3.761
							c-0.001-1.479,0.083-2.839,0.166-3.418c0.167-1.254-1.486-2.484-2.674-2.687c-0.987-0.166-1.462,0.354-1.569,0.863
							c-0.535,2.402-4.183,8.281-7.141,9.453c-0.737,0.285-1.344,0.26-1.879-0.106c-0.652-0.415-1.009-1.478-1.009-2.993
							c0-2.129,0.759-4.353,1.674-4.943c0.368-0.227,0.606-0.558,0.654-0.946c0.059-0.474-0.154-0.946-0.606-1.396
							c-0.845-0.946-2.009-1.432-2.948-1.193c-1.022,0.342-1.64,1.336-2.044,2.141c-0.262,0.449-0.44,0.925-0.583,1.386
							c-0.272,0.012-0.535,0.143-0.688,0.4c-1.01,1.716-10.065,5.931-12.752,5.931c-0.939,0-1.841-0.299-2.781-0.875
							c-1.021-0.863-1.57-2.51-2.058-3.951c-0.249-0.771-0.499-1.479-0.819-2.129c-0.511-0.792-1.593-1.526-2.508-1.704
							c-0.583-0.118-0.95,0.036-1.188,0.202l-7.569,6.14c-0.168-0.698-0.298-1.336-0.417-1.929c-0.31-1.49-0.571-2.769-1.188-4.234
							l-0.072-0.117c-0.761-1.042-2.484-2.166-3.567-1.633c-3.361,1.634-6.095,4.579-8.732,7.453
							c0.012-0.756,0.059-1.418,0.093-2.07c0.06-0.958,0.12-1.868,0.084-2.933c0.083-0.568-0.227-1.231-0.891-1.812
							c-0.607-0.544-1.583-1.074-2.354-0.813c-0.416,0.142-0.688,0.472-0.772,0.958c-0.404,2.507-0.606,5.005-0.605,7.416
							c0,1.208,0.083,2.509,0.166,3.763l0.024,0.13c0.25,1.019,1.747,2.283,2.794,2.604c0.213,0.069,0.403,0.094,0.57,0.094
							c0.368,0,0.606-0.13,0.76-0.272c1.379-1.192,2.579-2.626,3.838-4.141c1.628-1.951,3.314-3.975,5.489-5.548
							c0.703,2.979,1.203,4.707,1.998,6.458c0.63,1.146,2.567,2.212,3.672,1.656c2.151-1.435,4.101-2.958,7.713-5.904
							c0.238,0.556,0.583,1.242,1.07,1.928c0.785,1.042,1.699,2.129,3.066,3.04c1.83,1.159,3.982,1.798,6.05,1.798
							c4.375,0,9.032-3.053,11.23-5.454c0.095,0.65,0.226,1.289,0.428,1.894c1.021,3.146,4.136,5.512,7.238,5.511
							c3.375,0,5.812-2.461,7.605-4.897c1.508,2.674,4.208,4.294,7.25,4.294c5.586,0.33,10.244-3.656,12.515-7.171
							c0.511,0.331,1.045,0.627,1.591,0.91c0.345,0.189,0.69,0.367,1.047,0.568c1.117,0.615,2.888,1.513,4.587,2.377
							c0.345,0.177,0.689,0.343,1.023,0.521c-2.127,0.367-4.646,0.593-6.596,0.593c-1.07,0-1.973-0.082-2.698-0.235
							c-1.331-0.296-1.711,0.46-1.793,0.697c-0.321,0.898,0.451,2.188,1.367,2.639c1.295,0.507,3.363,0.804,5.692,0.803
							c2.33,0,4.552-0.261,6.145-0.697c1.593-0.428,2.863-1.609,3.161-2.935c0.224-0.994-0.12-1.952-0.976-2.697
							c-1.401-1.11-3.303-2.142-5.716-3.452c-0.605-0.332-1.236-0.676-1.89-1.029c-0.262-0.154-0.535-0.309-0.808-0.462
							c-1.105-0.626-2.353-1.336-2.115-1.868c0.582-1.372,5.229-2.65,8.307-3.491c1.236-0.343,2.4-0.648,3.233-0.946l0.167-0.061
							l0.107-0.13c0.368-0.461,0.379-1.065,0.048-1.667c-0.5-0.875-1.772-1.738-2.984-1.584h0.009L318.218,206.979L318.218,206.979z
							"/>
						<path fill="#48AC33" d="M328.963,205.262c0.451,0.248,1.022,0.4,1.545,0.4c0.522,0,1.034-0.154,1.306-0.532
							c0.202-0.344,0.57-1.29,0.963-2.317l0.166-0.45c0.298-0.591,0.321-1.229,0.321-1.632c0.058-0.236,0.023-0.508-0.12-0.757
							c-0.298-0.567-1.059-1.055-1.89-1.241c-0.784-0.31-1.64-0.284-2.151,0.047c-0.296,0.202-0.463,0.51-0.463,0.759l-0.166,1.206
							c-0.049,0.144-0.131,0.343-0.226,0.591c-0.166,0.438-0.487,1.313-0.618,1.574c-0.226,0.227-0.309,0.532-0.25,0.863
							c0.108,0.627,0.76,1.219,1.559,1.467L328.963,205.262z"/>
						<path fill="#FFFFFF" d="M372.759,214.862c-4.658,4.104-10.922,8.873-18.027,9.395c-1.748,0-3.163-0.565-3.995-1.585
							c-0.785-0.969-1.034-2.293-0.712-3.833c0.378-1.784,1.603-3.57,3.112-4.555c0.63-0.402,1.569-0.829,2.639-0.781
							c-0.119,0.544-0.321,0.946-0.439,1.171c-0.512,0.937-0.227,1.479,0,1.718c0.38,0.426,1.058,0.508,1.746,0.224
							c0.81-0.271,2.972-0.982,2.972-2.921c-0.105-1.077-1.021-2.26-2.282-2.936c-1.034-0.556-2.199-0.839-3.446-0.839
							c-1.759,0-3.435,0.616-5.002,1.848c-1.319,1.089-2.271,2.473-2.805,4.046c-3.648,3.006-10.576,7.667-14.796,7.667
							c-0.82,0-1.557-0.227-2.092-0.616c-0.879-0.921,0.511-9.628,1.141-10.551l0.13-0.13l0.035-0.18
							c0.154-0.792-0.595-1.701-1.807-2.141c-0.57-0.142-1.615-0.319-2.246,0.083c-0.203,0.129-0.345,0.296-0.416,0.497
							c-0.939,1.503-1.497,4.104-1.497,6.979c0.001,3.324,0.761,6.116,2.033,7.466c1.784,1.965,4.208,2.411,6.074,2.41
							c0.153,0,0.309,0,0.463,0c4.363-0.188,9.389-3.535,12.646-6.576c0.309,1.535,1.034,2.933,2.163,4.104
							c1.902,1.975,4.825,3.157,7.88,3.157c10.186-0.581,16.198-6.921,17.944-10.188c0.569-1.052,0.321-2.363-0.25-2.886
							c-0.32-0.296-0.761-0.343-1.177-0.059L372.759,214.862z"/>
						<path fill="#FFFFFF" d="M533.676,206.951c-3.827,0.521-10.362,2.415-12.668,5.489c-0.715,0.959-1,1.977-0.844,3.006
							c0.023,0.165,0.07,0.295,0.105,0.449c-3.304,3.419-9.021,8.932-16.625,8.933c-2.354,0-4.66-1.855-5.42-3.205
							c3.194-0.332,6.438-2.483,7.51-5.11c0.453-1.194,0.272-2.474-0.51-3.598c-0.941-1.358-2.605-2.223-4.259-2.222
							c-3.768,0.153-6.284,3.004-7.069,6.211c-3.029,1.928-8.89,4.436-10.955,4.436c-0.939,0.001-1.844-0.294-2.781-0.874
							c-1.023-0.862-1.568-2.508-2.059-3.949c-0.248-0.771-0.498-1.479-0.818-2.129c-0.512-0.793-1.592-1.526-2.508-1.703
							c-0.582-0.119-0.951,0.035-1.188,0.198l-7.569,6.144c-0.164-0.699-0.297-1.338-0.416-1.929c-0.312-1.49-0.57-2.77-1.189-4.234
							l-0.07-0.119c-0.76-1.042-2.498-2.164-3.565-1.631c-3.361,1.632-6.097,4.578-8.732,7.454c0.013-0.757,0.06-1.42,0.097-2.07
							c0.059-0.959,0.116-1.87,0.084-2.935c0.082-0.568-0.229-1.23-0.896-1.812c-0.604-0.544-1.578-1.077-2.352-0.813
							c-0.414,0.142-0.689,0.473-0.771,0.957c-0.104,0.663-0.203,1.326-0.271,1.986c-0.312-0.021-0.597-0.021-0.763-0.012
							c-0.237,0-0.725,0.036-1.401,0.071c-1.474,0.096-3.945,0.261-6.728,0.261c-2.188,0-4.221-0.104-6.039-0.306
							c-1.426-1.609-3.434-2.673-5.752-3.018c-2.01-0.094-2.781,1.077-3.146,2.132l-0.154,0.033
							c-1.213,0.415-2.426,1.849-3.211,3.656c-4.359,3.573-9.804,7.11-15.865,7.563c-1.746,0-3.16-0.567-3.992-1.585
							c-0.783-0.971-1.033-2.296-0.713-3.832c0.381-1.786,1.604-3.574,3.113-4.557c0.629-0.4,1.557-0.829,2.639-0.781
							c-0.119,0.546-0.32,0.945-0.438,1.173c-0.513,0.934-0.226,1.479,0,1.715c0.379,0.426,1.057,0.508,1.748,0.224
							c0.807-0.271,2.971-0.979,2.971-2.922c-0.106-1.077-1.022-2.259-2.282-2.933c-1.033-0.557-2.197-0.842-3.445-0.842
							c-1.76,0-3.437,0.616-5.004,1.849c-2.031,1.669-3.195,4.058-3.291,6.729c-0.105,2.426,0.688,4.614,2.33,6.317
							c1.901,1.975,4.826,3.157,7.879,3.157c6.086-0.345,10.662-2.746,13.75-5.324c0.7,2.437,2.938,4.896,6.12,5.062
							c0.228,0.014,0.451,0.024,0.681,0.024c4.192,0,7.438-2.604,8.162-6.625c0.215-1.053,0.215-2.129,0.012-3.159
							c5.193,0.164,10.293-0.604,12.088-1.256c0.142-0.048,0.32-0.118,0.51-0.19c-0.059,0.937-0.096,1.87-0.096,2.78
							c0,1.207,0.084,2.509,0.168,3.762l0.023,0.133c0.248,1.017,1.745,2.28,2.793,2.601c0.215,0.072,0.403,0.095,0.569,0.095
							c0.369,0,0.605-0.13,0.761-0.271c1.381-1.195,2.579-2.626,3.84-4.142c1.629-1.951,3.313-3.975,5.487-5.549
							c0.703,2.98,1.203,4.708,1.998,6.458c0.629,1.146,2.568,2.211,3.675,1.656c2.149-1.432,4.1-2.958,7.711-5.904
							c0.237,0.557,0.582,1.242,1.069,1.93c0.785,1.041,1.699,2.129,3.066,3.04c1.83,1.157,3.98,1.797,6.049,1.797
							c3.279,0,6.728-1.718,9.176-3.598c0.035,0.13,0.047,0.248,0.097,0.366c1.748,5.396,7.95,6.41,12.35,6.41
							c0.533,0,1.045-0.012,1.508-0.037c5.67-0.332,11.42-4.212,14.119-9.488c0.699,0.543,1.51,0.993,2.316,1.432
							c0.344,0.188,0.688,0.365,1.047,0.567c1.115,0.614,2.887,1.515,4.588,2.376c0.344,0.179,0.688,0.345,1.02,0.521
							c-2.127,0.367-4.645,0.591-6.596,0.591c-1.067,0-1.973-0.082-2.697-0.236c-1.332-0.295-1.711,0.461-1.793,0.698
							c-0.321,0.899,0.451,2.189,1.365,2.638c1.295,0.51,3.363,0.806,5.693,0.805c2.33,0,4.551-0.263,6.145-0.699
							c1.594-0.426,2.863-1.609,3.162-2.934c0.225-0.994-0.121-1.952-0.977-2.697c-1.402-1.112-3.306-2.142-5.705-3.442
							c-0.605-0.331-1.236-0.674-1.892-1.029c-0.262-0.151-0.535-0.307-0.809-0.462c-1.105-0.625-2.354-1.335-2.115-1.865
							c0.582-1.374,5.23-2.651,8.307-3.491c1.236-0.344,2.4-0.651,3.232-0.947l0.168-0.059l0.105-0.129
							c0.366-0.464,0.381-1.065,0.047-1.67c-0.5-0.876-1.771-1.736-2.982-1.585L533.676,206.951z M426.108,216.037
							c1.094,0.615,2.508,1.076,4.291,1.407c0.535,1.49,0.297,3.419-0.629,4.922c-0.785,1.265-1.938,2-3.257,2.059
							c-1.131,0.061-1.963-0.4-2.379-2.826c-0.366-2.06,0.986-4.625,1.974-5.55V216.037L426.108,216.037z M501.955,214.751
							c-0.131,0.709-1.604,2.07-3.873,3.253c0.451-1.323,1.652-3.016,2.805-3.513c0.201-0.084,0.367-0.12,0.498-0.12
							c0.25,0,0.416,0.119,0.535,0.237c0.023,0.022,0.047,0.047,0.023,0.143H501.955L501.955,214.751z"/>
						<path fill="#FFFFFF" d="M616.213,194.105l-0.086-0.118c-0.365-0.556-1.297-1.515-2.33-1.951
							c-2.852-0.628-7.067-0.947-12.541-0.946c-7.53,0.001-16.158,0.618-23.1,1.115l-2.389,0.167
							c-0.597,0.061-1.211,0.117-1.783,0.153c0.369-6.944,0.879-13.062,1.414-16.857v-0.083v-0.083
							c-0.229-1.502-2.082-2.259-3.306-2.116c-0.893,0.095-1.438,0.639-1.393,1.313c-0.367,5.774-0.758,11.948-1.078,18.147
							c-10.563,0.864-16.424,1.551-22.248,2.615c-0.725,0.167-1.104,0.724-0.961,1.407c0.213,1.089,1.746,2.284,3.172,2.061
							c6.349-1.113,12.552-1.622,19.111-2.181l0.783-0.069c-0.228,4.612-0.394,9.402-0.484,13.566
							c-0.084,3.04-0.168,7.748-0.166,12.882c0.002,11.416,0.351,24.712,1.324,27.787c0.451,1.337,1.994,2.875,3.113,2.875
							c0.081,0,0.166,0,0.25-0.022c0.225-0.046,0.938-0.31,0.76-1.573c-0.953-3.418-1.439-10.445-1.439-20.879
							c-0.002-5.323,0.117-10.693,0.224-15.438c0.049-2.119,0.098-4.067,0.119-5.75l0.565-13.758
							c0.441-0.021,0.844-0.082,1.273-0.129l1.686-0.143c6.609-0.521,15.664-1.244,24.115-1.245c5.778,0,10.244,0.33,13.701,1.015
							c0.547,0.071,1.008-0.071,1.332-0.378c0.299-0.295,0.428-0.734,0.366-1.218v-0.145L616.213,194.105z"/>
						<path fill="#FFFFFF" d="M606.91,213.825c-0.238,0-0.725,0.035-1.408,0.071c-1.467,0.095-3.942,0.261-6.723,0.262
							c-2.188,0-4.219-0.104-6.037-0.308c-1.426-1.608-3.436-2.672-5.754-3.018c-2.021-0.094-2.781,1.077-3.146,2.129l-0.153,0.036
							c-2.295,0.792-4.623,5.193-3.98,9.017c0.463,2.611,2.83,5.498,6.275,5.676c0.227,0.011,0.451,0.022,0.678,0.022
							c4.195-0.001,7.439-2.604,8.164-6.625c0.215-1.053,0.215-2.129,0.01-3.157c5.197,0.164,10.293-0.605,12.086-1.257
							c0.728-0.235,2.384-0.91,2.187-1.938c-0.181-0.983-1.726-0.936-2.209-0.911L606.91,213.825L606.91,213.825z M586.256,224.391
							c-1.131,0.06-1.963-0.401-2.379-2.827c-0.367-2.061,0.986-4.625,1.976-5.548c1.092,0.613,2.506,1.074,4.289,1.404
							c0.534,1.491,0.297,3.42-0.632,4.924c-0.782,1.265-1.936,2-3.254,2.059V224.391L586.256,224.391z"/>
						<path fill="#48AC33" d="M654.801,205.219c0.451,0.246,1.023,0.4,1.548,0.4c0.526,0,1.03-0.154,1.305-0.533
							c0.205-0.344,0.572-1.276,0.965-2.307l0.178-0.462c0.302-0.591,0.326-1.229,0.326-1.62c0.06-0.248,0.019-0.509-0.111-0.757
							c-0.301-0.568-1.061-1.052-1.889-1.242c-0.785-0.308-1.639-0.284-2.147,0.048c-0.302,0.2-0.472,0.508-0.472,0.756
							l-0.162,1.207c-0.051,0.13-0.127,0.346-0.213,0.58c-0.172,0.438-0.485,1.325-0.612,1.585c-0.23,0.227-0.316,0.532-0.259,0.863
							c0.111,0.627,0.761,1.219,1.563,1.467L654.801,205.219z"/>
						<path fill="#FFFFFF" d="M718.674,214.378c-0.698-0.497-1.631,0.438-2.059,0.899c-3.191,3.325-9.141,9.524-17.191,9.525
							c-2.354,0-4.659-1.857-5.422-3.205c3.193-0.331,6.438-2.485,7.513-5.111c0.444-1.195,0.274-2.461-0.513-3.596
							c-0.938-1.361-2.604-2.235-4.27-2.235c-3.101,0.129-5.354,2.083-6.486,4.567c-4.781,0.296-12.045,0.521-13.514,0.474
							c0.178-5.027,1.518-21.352,2.02-24.7c0.291-0.911-0.59-2.011-1.563-2.496c-0.707-0.39-1.435-0.497-1.92-0.261
							c-0.314,0.155-0.529,0.427-0.57,0.746c-0.703,3.585-2.064,20.324-2.15,25.363l0.045,0.862l-1.366-0.271
							c-1.076-0.26-1.604,0.225-1.742,0.757c-0.146,0.532,0.129,1.243,0.649,1.81c-3.799,2.792-9.102,5.939-12.573,5.939
							c-0.818,0-1.556-0.224-2.091-0.614c-0.883-0.923,0.511-9.63,1.142-10.553l0.127-0.13l0.035-0.178
							c0.153-0.792-0.59-1.703-1.802-2.143c-0.452-0.118-1.598-0.331-2.243,0.083c-0.207,0.13-0.353,0.295-0.42,0.497
							c-0.939,1.503-1.5,4.104-1.5,6.979c0,0.104,0,0.199,0,0.308c-9.341,11.7-12.822,11.523-13.882,10.873
							c-0.684-0.473-2.305-2.815-2.307-14.418c-0.002-14.93,2.516-35.217,2.967-36.625l0.023-0.178c0-0.78-0.971-1.608-1.912-2.082
							c-0.732-0.295-1.305-0.319-1.725-0.096c-0.279,0.165-0.479,0.45-0.521,0.724c-1.178,3.797-3.531,22.108-3.527,36.209
							c0.002,8.198,0.787,13.567,2.322,15.994l0.027,0.021c1.92,2.688,4.522,4.165,7.334,4.164c4.242,0,9.104-5.136,12.033-9.56
							c0.321,0.887,0.733,1.606,1.213,2.114c1.785,1.967,4.209,2.414,6.067,2.414c0.154,0,0.316,0,0.472,0
							c4.584-0.199,9.895-3.893,13.129-7.041c-0.267,3.987-0.4,7.762-0.398,11.229c0,13.391,2.222,22.085,6.609,25.823
							c0.104,0.094,0.248,0.234,0.463,0.295c1.092,0.555,2.004,0.745,2.756,0.745c1.023,0,1.732-0.355,2.152-0.663
							c1.092-0.792,1.979-2.106,2.516-3.668c0.932-2.343,1.416-5.654,1.416-9.582c0-1.02,0-2.07-0.086-3.193
							c-0.375-5.407-1.785-10.646-4.1-15.165c-1.451-2.448-2.816-4.625-4.822-6.529c0.588,0.014,1.289,0.014,2.092,0.014
							c2.525,0,5.687-0.107,8.314-0.394c0.008,0.816,0.17,1.682,0.448,2.543c1.755,5.396,7.951,6.41,12.349,6.409
							c0.537,0,1.049-0.012,1.51-0.035c5.781-0.332,11.652-4.354,14.271-9.786c1.623-3.205,0.932-3.688,0.684-3.865L718.674,214.378
							z M697.733,214.713c-0.086,0.428-0.656,1.102-1.597,1.822c0.238-0.391,0.289-0.781,0.195-1.1
							c-0.061-0.202-0.195-0.379-0.385-0.521c0.24-0.188,0.479-0.354,0.717-0.461c0.197-0.083,0.367-0.118,0.496-0.118
							c0.246,0,0.418,0.118,0.539,0.237c0.014,0.022,0.041,0.047,0.014,0.142L697.733,214.713L697.733,214.713z M676.469,221.458
							c1.479,1.55,2.775,3.335,3.759,5.146c2.45,4.777,3.271,10.02,3.534,13.565c0.076,1.278,0.162,2.615,0.162,3.8
							c0,3.218-0.426,5.927-1.244,7.9c-0.655,1.963-1.393,2.484-1.774,2.626c-0.154,0.061-0.308,0.07-0.461,0.036l-0.154-0.213
							c-2.826-3.5-4.313-11.024-4.313-21.777c0-3.819,0.178-7.807,0.493-11.105h0.023L676.469,221.458z"/>
					</g>
				</g>
			</g>
		</g>
	</g>
	<g>
		<path fill="#FFFFFF" d="M68.938,398.406l2.52-0.001v-4.607l2.847-0.001c3.155,0,5.737-1.682,5.737-4.896v-0.042
			c-0.001-2.889-2.091-4.793-5.451-4.793h-5.654L68.938,398.406z M71.457,391.522l-0.001-5.163h2.929
			c1.887,0,3.095,0.88,3.096,2.563v0.041c0,1.493-1.188,2.562-3.094,2.562L71.457,391.522L71.457,391.522z M82.623,398.405h2.521
			l-0.001-5h3.156l3.524,4.999h2.99l-3.872-5.43c1.987-0.574,3.401-1.989,3.401-4.344v-0.041c-0.001-1.25-0.432-2.316-1.19-3.097
			c-0.922-0.898-2.336-1.433-4.139-1.433l-6.392,0.002L82.623,398.405z M85.142,391.173l-0.001-4.814h3.668
			c1.863-0.001,2.971,0.839,2.972,2.376v0.042c0,1.454-1.147,2.396-2.951,2.396H85.142z M104.272,398.647
			c4.404,0,7.519-3.381,7.518-7.418v-0.04c0-4.036-3.074-7.376-7.479-7.375c-4.405,0.001-7.519,3.381-7.519,7.417v0.042
			C96.794,395.308,99.867,398.647,104.272,398.647z M104.312,396.312c-2.848,0.001-4.876-2.295-4.877-5.082v-0.038
			c0-2.789,1.986-5.063,4.835-5.063c2.848,0,4.877,2.313,4.877,5.101v0.041C109.148,394.057,107.16,396.312,104.312,396.312z
			 M114.836,398.401h5.348c4.508-0.003,7.621-3.138,7.62-7.173v-0.042c-0.001-4.037-3.114-7.131-7.622-7.129h-5.347L114.836,398.401
			z M120.181,386.353c3.012,0,4.979,2.068,4.979,4.875v0.041c0.001,2.806-1.966,4.835-4.978,4.835h-2.828l-0.002-9.75
			L120.181,386.353z M136.743,398.622c3.749-0.001,6.167-2.15,6.166-6.435l-0.001-8.134h-2.52v8.257
			c0.001,2.644-1.371,3.976-3.604,3.977c-2.254,0-3.627-1.413-3.627-4.075l-0.001-8.155h-2.521l0.001,8.258
			C130.637,396.471,133.014,398.623,136.743,398.622z M153.028,398.64c2.684,0,4.322-0.982,5.817-2.541l-1.618-1.639
			c-1.229,1.146-2.356,1.845-4.118,1.845c-2.745,0.001-4.732-2.273-4.733-5.08v-0.042c0-2.806,2.007-5.063,4.731-5.063
			c1.64,0,2.868,0.72,4.017,1.783l1.617-1.865c-1.372-1.312-2.97-2.231-5.613-2.231c-4.343,0.001-7.396,3.341-7.396,7.42v0.039
			C145.733,395.385,148.847,398.641,153.028,398.64z M165.018,398.393h2.54l-0.002-12.006l4.549-0.001v-2.336l-11.637,0.002v2.336
			l4.548-0.001L165.018,398.393z M174.923,398.392h2.521l-0.002-14.343h-2.52L174.923,398.392z M188.125,398.635
			c4.405,0,7.52-3.382,7.519-7.416v-0.042c0-4.037-3.074-7.375-7.479-7.375c-4.404,0-7.519,3.383-7.518,7.419v0.04
			C180.647,395.299,183.72,398.637,188.125,398.635z M188.166,396.302c-2.848,0-4.876-2.294-4.877-5.079v-0.042
			c0-2.787,1.986-5.063,4.835-5.063c2.847,0,4.876,2.316,4.876,5.104v0.041C193.001,394.047,191.013,396.302,188.166,396.302z
			 M198.689,398.389l2.479-0.001l-0.001-10.202l7.908,10.202h2.111l-0.002-14.343l-2.479,0.001l0.001,9.916l-7.685-9.916
			l-2.336,0.001L198.689,398.389z"/>
		<path fill="#48AC33" d="M223.005,406.924l-0.004-29.024h4l0.004,29.024H223.005z M394.166,406.9l-0.006-29.022h4l0.006,29.022
			H394.166z M503.008,406.885l-0.004-29.025h4l0.004,29.025H503.008z"/>
		<path fill="#FFFFFF" d="M245.807,398.385l2.521-0.001l-0.001-5h3.154l3.525,4.999h2.992l-3.874-5.432
			c1.987-0.572,3.401-1.986,3.401-4.344v-0.04c0-1.251-0.432-2.316-1.189-3.095c-0.922-0.901-2.336-1.435-4.138-1.435h-6.394
			L245.807,398.385z M248.327,391.15l-0.001-4.813h3.668c1.864-0.001,2.971,0.838,2.971,2.376v0.041c0,1.453-1.147,2.396-2.95,2.396
			H248.327z M260.614,398.383l10.735-0.001v-2.254h-8.216l-0.001-3.854h7.191v-2.254h-7.191l-0.001-3.729h8.113v-2.255
			l-10.633,0.001L260.614,398.383z M280.998,398.623c2.684,0,4.323-0.981,5.818-2.541l-1.619-1.639
			c-1.229,1.146-2.355,1.845-4.117,1.845c-2.746,0.001-4.733-2.271-4.734-5.082v-0.036c0-2.811,2.008-5.063,4.732-5.063
			c1.64,0,2.868,0.716,4.017,1.781l1.618-1.864c-1.373-1.312-2.972-2.233-5.614-2.233c-4.344,0.004-7.396,3.344-7.396,7.418v0.043
			C273.704,395.366,276.818,398.623,280.998,398.623z M295.907,398.621c4.405-0.002,7.521-3.382,7.52-7.417v-0.042
			c-0.001-4.034-3.075-7.375-7.479-7.375c-4.405,0.001-7.52,3.384-7.519,7.418v0.042
			C288.429,395.281,291.503,398.621,295.907,398.621z M295.949,396.286c-2.848,0.001-4.877-2.295-4.878-5.081v-0.041
			c0-2.785,1.987-5.061,4.835-5.061c2.848-0.002,4.878,2.313,4.878,5.101v0.041C300.784,394.031,298.797,396.286,295.949,396.286z
			 M306.47,398.377h2.521v-5.003h3.154l3.525,4.998h2.991l-3.873-5.428c1.987-0.574,3.401-1.988,3.401-4.345v-0.04
			c0-1.251-0.432-2.316-1.19-3.094c-0.921-0.902-2.335-1.438-4.139-1.438l-6.392,0.003L306.47,398.377z M308.99,391.143
			l-0.001-4.816h3.667c1.865,0,2.973,0.839,2.973,2.377v0.041c0,1.455-1.146,2.396-2.95,2.396L308.99,391.143z M321.277,398.372
			l5.348-0.001c4.507,0,7.621-3.136,7.62-7.171v-0.042c-0.001-4.036-3.114-7.13-7.622-7.13l-5.347,0.002L321.277,398.372z
			 M326.623,386.324c3.012-0.001,4.979,2.067,4.979,4.876v0.039c0.001,2.811-1.966,4.837-4.978,4.838h-2.828l-0.002-9.753H326.623
			L326.623,386.324z M337.447,398.369h2.521l-0.002-14.342h-2.52L337.447,398.369z M343.806,398.369h2.479v-10.204l7.908,10.203
			h2.111l-0.002-14.343h-2.479l0.001,9.917l-7.685-9.915h-2.335L343.806,398.369z M366.796,398.612c2.54,0,4.567-1.021,5.981-2.231
			v-6.024l-6.104,0.001v2.193h3.666l0.002,2.682c-0.884,0.658-2.109,1.088-3.464,1.088c-2.932,0-4.877-2.171-4.877-5.121v-0.041
			c0-2.745,2.007-5.063,4.65-5.063c1.821,0,2.907,0.594,4.014,1.538l1.601-1.907c-1.476-1.25-3.013-1.946-5.513-1.945
			c-4.321,0-7.396,3.402-7.396,7.419v0.039C359.358,395.417,362.308,398.613,366.796,398.612z"/>
		<path fill="#FFFFFF" d="M412.377,398.361l2.479-0.001v-10.244l4.486,6.723h0.082l4.524-6.766l0.002,10.286l2.521-0.001
			l-0.002-14.341h-2.687l-4.361,6.782l-4.365-6.781h-2.686L412.377,398.361z M430.308,398.358h2.52v-14.341h-2.521L430.308,398.358z
			 M445.905,384.015l-3.584,5.203l-3.566-5.203l-2.971,0.001l4.979,7.046l-5.186,7.296l2.891-0.001l3.771-5.471l3.791,5.471h2.971
			l-5.205-7.335l4.998-7.008L445.905,384.015z M451.735,398.356h2.521l-0.002-14.343h-2.52L451.735,398.356L451.735,398.356z
			 M458.096,398.356l2.479-0.001l-0.002-10.203l7.91,10.202h2.108l-0.002-14.343h-2.479l0.002,9.917l-7.686-9.916l-2.337,0.001
			L458.096,398.356z M481.082,398.596c2.541,0,4.568-1.023,5.982-2.232v-6.022h-6.105v2.191h3.668v2.685
			c-0.881,0.656-2.106,1.087-3.461,1.087c-2.932,0-4.879-2.171-4.879-5.121v-0.041c0-2.746,2.008-5.063,4.65-5.063
			c1.824,0,2.91,0.595,4.016,1.537l1.598-1.904c-1.475-1.249-3.012-1.946-5.51-1.945c-4.324,0-7.396,3.4-7.396,7.418v0.04
			C473.647,395.402,476.596,398.596,481.082,398.596z"/>
		<path fill="#FFFFFF" d="M528.237,398.345h2.479l-0.002-10.244l4.488,6.719h0.082l4.527-6.762l0.002,10.285h2.52l-0.002-14.342
			h-2.684l-4.365,6.78l-4.363-6.779h-2.684L528.237,398.345z M544.793,398.344h2.582l1.478-3.464l6.778-0.001l1.455,3.463h2.664
			l-6.313-14.443h-2.336L544.793,398.344z M549.772,392.646l2.457-5.737l2.479,5.736L549.772,392.646z M566.989,398.546
			c3.012-0.001,5.121-1.601,5.121-4.282v-0.041c-0.002-2.376-1.558-3.462-4.59-4.198c-2.767-0.656-3.423-1.146-3.423-2.255v-0.04
			c0-0.942,0.859-1.701,2.337-1.702c1.311,0,2.602,0.515,3.893,1.477l1.352-1.906c-1.452-1.167-3.112-1.8-5.202-1.8
			c-2.851,0-4.896,1.697-4.896,4.157v0.04c0,2.646,1.723,3.543,4.775,4.282c2.664,0.614,3.233,1.168,3.235,2.19v0.042
			c0,1.063-0.981,1.804-2.541,1.804c-1.762,0-3.153-0.677-4.524-1.864l-1.521,1.805
			C562.728,397.787,564.795,398.546,566.989,398.546z M578.297,398.34h2.541l-0.002-12.009h4.552v-2.337l-11.64,0.002v2.337
			l4.547-0.002L578.297,398.34z M588.06,398.339l10.733-0.002v-2.256l-8.215,0.001v-3.852l7.189-0.001v-2.254l-7.189,0.001
			l-0.002-3.729l8.113-0.001v-2.254l-10.633,0.001L588.06,398.339z M601.785,398.336h2.521v-4.999l3.153-0.001l3.523,5h2.992
			l-3.873-5.432c1.985-0.574,3.399-1.987,3.399-4.344v-0.042c-0.002-1.25-0.432-2.314-1.188-3.093
			c-0.922-0.901-2.336-1.435-4.14-1.435h-6.395L601.785,398.336z M604.303,391.102v-4.814l3.669-0.001
			c1.862,0,2.969,0.842,2.971,2.377v0.041c0,1.455-1.148,2.397-2.951,2.397H604.303z M616.733,398.336h2.521l-0.002-14.345h-2.521
			L616.733,398.336z M623.092,398.333h2.48l-0.002-10.201l7.91,10.2l2.106-0.001v-14.343l-2.479,0.001l0.002,9.915l-7.687-9.914
			h-2.336L623.092,398.333z M646.084,398.575c2.535-0.002,4.566-1.023,5.978-2.232l-0.002-6.025l-6.104,0.003v2.192l3.67-0.001
			l0.002,2.684c-0.881,0.656-2.106,1.088-3.467,1.088c-2.928,0-4.875-2.171-4.875-5.123v-0.039c0-2.745,2.006-5.063,4.652-5.063
			c1.815,0,2.91,0.593,4.014,1.535l1.594-1.905c-1.469-1.249-3.004-1.946-5.506-1.946c-4.328,0.001-7.4,3.403-7.397,7.418v0.042
			C638.642,395.382,641.594,398.575,646.084,398.575z"/>
	</g>
	<g>
		<polygon fill="none" points="292.201,428.585 428.797,428.585 425.742,486.254 294.326,486.254 		"/>
		<path fill="#FFFFFF" d="M330.203,478.546h-1.728l4.917-11.427h1.461l4.917,11.427h-1.859l-1.196-2.79h-5.447L330.203,478.546z
			 M331.932,474.295h4.251l-2.126-5.315L331.932,474.295z M346.813,468.58h3.588v-1.461h-8.903v1.461h3.588v9.966h1.595v-9.966
			H346.813z M357.311,467.119h-2.525v11.427h1.595v-9.566l0,0l3.722,9.566h1.062l3.722-9.566l0,0v9.566h1.593v-11.427h-2.523
			l-3.322,8.769l0,0L357.311,467.119z M382.558,472.832c0,0.798-0.135,1.595-0.399,2.26c-0.265,0.664-0.664,1.328-1.196,1.86
			c-0.532,0.531-1.062,0.929-1.861,1.195c-0.664,0.266-1.461,0.398-2.258,0.398c-0.796,0-1.593-0.133-2.258-0.398
			c-0.664-0.267-1.328-0.664-1.86-1.195c-0.532-0.532-0.932-1.064-1.196-1.86c-0.265-0.665-0.399-1.462-0.399-2.26
			c0-0.797,0.135-1.595,0.399-2.259s0.664-1.329,1.196-1.728c0.532-0.53,1.062-0.93,1.86-1.194c0.665-0.267,1.462-0.4,2.258-0.4
			c0.797,0,1.594,0.134,2.258,0.4c0.665,0.265,1.329,0.664,1.861,1.194c0.532,0.532,0.932,1.063,1.196,1.728
			S382.558,472.035,382.558,472.832 M380.962,472.832c0-0.53-0.133-1.195-0.265-1.727c-0.133-0.532-0.532-0.931-0.797-1.329
			c-0.399-0.398-0.8-0.664-1.329-0.931c-0.532-0.266-1.063-0.398-1.729-0.398c-0.664,0-1.196,0.133-1.728,0.398
			c-0.53,0.267-0.93,0.532-1.329,0.931c-0.397,0.398-0.665,0.797-0.797,1.329c-0.132,0.531-0.265,1.063-0.265,1.727
			c0,0.665,0.133,1.196,0.265,1.728c0.132,0.532,0.532,0.931,0.797,1.328c0.399,0.398,0.799,0.665,1.329,0.931
			c0.531,0.267,1.063,0.398,1.728,0.398c0.665,0,1.196-0.132,1.729-0.398c0.529-0.266,0.93-0.53,1.329-0.931
			c0.396-0.397,0.664-0.796,0.797-1.328C380.829,474.028,380.962,473.497,380.962,472.832 M393.32,468.447
			c-0.399-0.398-0.797-0.664-1.329-0.93c-0.532-0.267-1.196-0.398-1.729-0.398c-0.396,0-0.929,0-1.328,0.132
			c-0.397,0.134-0.797,0.267-1.196,0.532c-0.397,0.266-0.665,0.532-0.797,0.931c-0.265,0.398-0.265,0.797-0.265,1.328
			s0.132,0.931,0.265,1.195c0.132,0.399,0.399,0.665,0.664,0.798c0.268,0.267,0.532,0.398,0.932,0.531
			c0.397,0.134,0.664,0.266,1.062,0.399c0.399,0.133,0.664,0.265,0.932,0.265c0.265,0.134,0.529,0.267,0.797,0.399
			c0.265,0.133,0.397,0.398,0.532,0.531c0.132,0.266,0.265,0.532,0.265,0.798c0,0.265-0.133,0.664-0.265,0.797
			c-0.135,0.266-0.268,0.398-0.532,0.532c-0.268,0.132-0.399,0.265-0.664,0.398c-0.268,0.132-0.532,0.132-0.797,0.132
			c-0.532,0-0.932-0.132-1.329-0.398c-0.399-0.266-0.799-0.532-1.063-0.93l-1.196,0.93c0.399,0.532,0.932,0.931,1.596,1.196
			c0.664,0.265,1.328,0.398,1.993,0.398c0.529,0,0.929,0,1.461-0.134c0.397-0.132,0.797-0.397,1.196-0.664
			c0.397-0.266,0.664-0.664,0.797-1.063c0.265-0.398,0.265-0.931,0.265-1.461c0-0.532-0.132-0.931-0.265-1.329
			s-0.399-0.664-0.797-0.931c-0.268-0.266-0.664-0.398-1.064-0.531c-0.399-0.133-0.796-0.267-1.063-0.398
			c-0.265-0.133-0.529-0.267-0.797-0.267c-0.265-0.132-0.532-0.266-0.664-0.398c-0.133-0.132-0.397-0.266-0.532-0.53
			c-0.133-0.134-0.133-0.399-0.133-0.798c0-0.267,0-0.531,0.133-0.797c0.135-0.267,0.268-0.398,0.532-0.532
			c0.267-0.133,0.399-0.266,0.664-0.266c0.268-0.133,0.532-0.133,0.797-0.133c0.399,0,0.932,0.133,1.196,0.266
			c0.399,0.133,0.664,0.398,0.932,0.665L393.32,468.447z M294.593,455.824h3.72c6.91,0,12.491-5.581,12.491-12.49
			s-5.581-12.49-12.491-12.49h-3.72V455.824z M331.134,430.844h-3.721c-6.909,0-12.491,5.581-12.491,12.49s5.582,12.49,12.491,12.49
			h3.721V430.844z M348.673,430.844h-9.035v24.98h9.035c6.91,0,12.49-5.581,12.49-12.49S355.583,430.844,348.673,430.844
			 M348.673,451.97h-2.524h-2.658v-17.406h2.658h2.524c4.783,0,8.638,3.854,8.638,8.637
			C357.442,448.118,353.456,451.97,348.673,451.97 M372.725,438.551c-4.784,0-8.637,3.854-8.637,8.637s3.853,8.637,8.637,8.637
			c4.783,0,8.637-3.854,8.637-8.637S377.508,438.551,372.725,438.551 M372.725,452.37c-2.925,0-5.183-2.393-5.183-5.183
			c0-2.924,2.392-5.183,5.183-5.183c2.922,0,5.183,2.393,5.183,5.183C378.039,449.977,375.646,452.37,372.725,452.37
			 M384.948,455.824h3.722v-24.98h-3.722V455.824z M401.558,438.551c-1.86,0-3.587,0.532-4.915,1.595v-9.302h-3.854v24.98h3.854
			v-1.595c1.461,0.931,3.055,1.595,4.915,1.595c4.783,0,8.638-3.854,8.638-8.637S406.341,438.551,401.558,438.551 M401.558,452.37
			c-2.258,0-4.251-1.462-4.915-3.588c-0.133-0.532-0.268-1.063-0.268-1.595s0.135-1.196,0.268-1.595
			c0.664-2.126,2.657-3.588,4.915-3.588c2.925,0,5.183,2.392,5.183,5.183C406.873,449.977,404.482,452.37,401.558,452.37
			 M424.146,438.551l-4.916,11.028l-4.918-11.028h-4.117l7.043,15.679l-0.133,0.267v0.132l-1.463,3.456l0,0
			c-0.396,1.063-1.594,1.461-2.658,1.063l-0.529-0.267l-1.064,2.392l-0.531,1.063l0,0l0,0l1.328,0.531
			c2.525,1.063,5.316,0,6.512-2.524c0,0,8.902-20.064,9.834-21.925h-4.387V438.551z"/>
	</g>
</g>
</svg>
